<?xml version="1.0" standalone="no"?>
<!DOCTYPE svg PUBLIC "-//W3C//DTD SVG 20010904//EN"
 "http://www.w3.org/TR/2001/REC-SVG-20010904/DTD/svg10.dtd">
<svg version="1.0" xmlns="http://www.w3.org/2000/svg"
 width="512.000000pt" height="512.000000pt" viewBox="0 0 512.000000 512.000000"
 preserveAspectRatio="xMidYMid meet">

<g transform="translate(0.000000,512.000000) scale(0.100000,-0.100000)"
fill="#ffffff" stroke="none">
<path d="M370 4540 l0 -210 -181 -442 c-171 -420 -181 -447 -186 -524 -11
-166 55 -342 176 -462 37 -37 84 -76 104 -87 l37 -20 0 -1212 0 -1213 2240 0
2240 0 0 1213 0 1212 37 20 c20 11 67 50 104 87 121 120 188 297 176 462 -6
77 -16 105 -186 516 l-181 435 0 218 0 217 -2190 0 -2190 0 0 -210z m4170
-115 l0 -105 -1980 0 -1980 0 0 105 0 105 1980 0 1980 0 0 -105z m-3451 -582
c-21 -142 -42 -283 -46 -313 l-8 -55 -392 -3 -393 -2 18 43 c9 24 67 166 127
315 l110 272 311 0 311 0 -38 -257z m921 230 c0 -16 -7 -147 -15 -293 -8 -146
-15 -275 -15 -287 l0 -23 -365 0 c-201 0 -365 2 -365 4 0 2 20 139 45 306 25
167 45 307 45 311 0 5 151 9 335 9 l335 0 0 -27z m899 -270 c7 -164 15 -306
17 -315 5 -17 -17 -18 -366 -18 l-372 0 6 38 c3 20 11 162 17 315 l12 277 337
0 336 0 13 -297z m871 288 c0 -5 20 -144 45 -310 25 -166 45 -303 45 -306 0
-8 -730 -6 -730 3 0 4 -7 133 -15 287 -8 154 -15 292 -15 308 l0 27 335 0
c185 0 335 -4 335 -9z m945 -263 c61 -149 118 -291 127 -315 l18 -43 -392 2
-393 3 -17 120 c-9 66 -30 207 -46 313 l-28 192 310 0 311 0 110 -272z m-3731
-615 c-13 -71 -120 -192 -209 -237 -28 -13 -80 -30 -117 -36 -188 -33 -384 92
-438 279 l-9 31 390 0 390 0 -7 -37z m973 -2 c-6 -48 -77 -145 -144 -196 -135
-103 -333 -105 -471 -5 -58 42 -141 149 -142 182 0 61 -23 58 387 58 l376 0
-6 -39z m973 2 c0 -40 -47 -110 -117 -176 -80 -76 -210 -116 -321 -98 -114 19
-191 67 -273 174 -38 49 -49 70 -49 100 l0 37 380 0 380 0 0 -37z m967 -8 c3
-35 -4 -48 -48 -103 -93 -116 -188 -164 -324 -164 -140 0 -235 50 -332 176
-40 52 -53 76 -53 102 l0 34 378 -2 377 -3 2 -40z m983 15 c-54 -187 -250
-313 -438 -280 -37 6 -89 23 -117 36 -89 45 -196 166 -209 237 l-7 37 390 0
390 0 -9 -30z m-3574 -436 c235 -113 496 -73 685 104 l72 68 62 -61 c107 -106
276 -175 425 -175 149 0 318 69 425 175 l62 61 72 -68 c239 -224 593 -223 832
0 l72 68 62 -61 c109 -107 276 -175 432 -175 l73 0 0 -1065 0 -1065 -110 0
-110 0 0 960 0 960 -637 -2 -638 -3 -3 -957 -2 -958 -1280 0 -1280 0 0 1065 0
1065 73 0 c157 0 325 68 431 175 l61 62 74 -69 c47 -44 100 -81 147 -104z
m2844 -1344 l0 -850 -425 0 -425 0 0 370 0 370 55 0 c71 0 120 20 139 59 20
38 20 64 0 102 -19 39 -68 59 -139 59 l-55 0 0 370 0 370 425 0 425 0 0 -850z"/>
<path d="M750 1760 l0 -750 1065 0 1065 0 0 750 0 750 -1065 0 -1065 0 0 -750z
m1920 0 l0 -530 -855 0 -855 0 0 530 0 530 855 0 855 0 0 -530z"/>
<path d="M2415 2176 c-16 -8 -182 -166 -367 -353 -333 -334 -338 -339 -338
-379 0 -74 71 -128 136 -104 33 12 677 650 700 692 29 54 5 120 -51 144 -41
17 -42 17 -80 0z"/>
<path d="M2395 1742 c-58 -37 -252 -246 -259 -279 -16 -71 56 -144 123 -126
35 9 278 244 293 282 34 91 -75 175 -157 123z"/>
</g>
</svg>
